# xmcd
#
# Track frame offsets: 
#        150
#        8196
#        28918
#        50995
#        69090
#        102184
#        119252
#        139177
#        168843
#        193247
#
# Disc length: 2863 seconds
#
# Revision: 0
# Processed by: cddbd v1.5.2PL0 Copyright (c) Steve Scherf et al.
# Submitted via: ExactAudioCopy v0.90b4
#
DISCID=8a0b2d0a
DTITLE=The Dynamites feat. Charles Walker - Kaboom
DYEAR=2007
DGENRE=Soul
TTITLE0=Body Snatcher
TTITLE1=Own Thing
TTITLE2=Can You Feel It
TTITLE3=Come On In
TTITLE4=Way Down South
TTITLE5=Slinky
TTITLE6=Every Time
TTITLE7=Dig Deeper
TTITLE8=What's It Gonna Be
TTITLE9=Killin' it
EXTD=
EXTT0=
EXTT1=
EXTT2=
EXTT3=
EXTT4=
EXTT5=
EXTT6=
EXTT7=
EXTT8=
EXTT9=
PLAYORDER=
